<svg id="f7f5ff75-8a2e-4a3d-9f77-62d219dfe9cb" data-name="Layer 1" xmlns="http://www.w3.org/2000/svg" width="782.51378" height="566.79002" viewBox="0 0 782.51378 566.79002"><path d="M513.06981,704.74671c4.66847-10.08358,9.33339-20.31666,11.35946-31.24223s1.17569-22.78293-4.627-32.25932-17.22813-15.90241-28.13153-13.76022c-8.95532,1.75945-16.14605,8.81268-20.35651,16.90992s-5.89976,17.23014-7.53739,26.20853c-.52917-10.2001-1.0896-20.56436-4.478-30.19975s-10.06045-18.61463-19.5694-22.34313-21.87886-.79648-26.89061,8.1032c-7.06074,12.53818,2.30155,30.12541-5.81734,42.0058-1.39265-11.917-13.85471-21.33234-25.69879-19.4159s-20.70109,14.78128-18.2646,26.5294c1.44978,6.99047,6.21931,12.93631,11.92156,17.232s12.33421,9.27436,18.89475,12.09Z" transform="translate(-208.74311 -166.60499)" fill="#f2f2f2"/><path d="M369.27675,657.17322c9.40826,3.28851,18.903,6.61425,27.49227,11.75558,7.698,4.60786,14.553,10.81187,18.88231,18.7569a33.35556,33.35556,0,0,1,4.12583,13.85861c.06251,1.01759,1.65458,1.02469,1.59164,0-.55661-9.061-4.97238-17.353-11.087-23.91075-6.704-7.18984-15.39158-12.10041-24.3611-15.91043-5.31821-2.259-10.7686-4.17895-16.2208-6.08468-.96887-.33866-1.3854,1.19842-.42312,1.53477Z" transform="translate(-208.74311 -166.60499)" fill="#fff"/><path d="M423.54433,619.64027a143.38208,143.38208,0,0,1,13.79114,30.61557,145.11672,145.11672,0,0,1,6.361,32.96846,143.30541,143.30541,0,0,1,.15151,18.83685c-.05905,1.02328,1.53278,1.01989,1.59163,0a145.1941,145.1941,0,0,0-2.04032-33.82049,146.92647,146.92647,0,0,0-9.769-32.44022,143.25,143.25,0,0,0-8.71162-16.9635.79641.79641,0,0,0-1.37433.80333Z" transform="translate(-208.74311 -166.60499)" fill="#fff"/><path d="M501.44492,628.78284a232.04359,232.04359,0,0,0-17.11648,57.57847q-1.34225,8.36487-2.07791,16.81182c-.089,1.02023,1.50317,1.01426,1.59163,0A231.208,231.208,0,0,1,496.58,645.14785q2.83382-7.89208,6.23921-15.56169c.412-.92791-.959-1.73862-1.37433-.80332Z" transform="translate(-208.74311 -166.60499)" fill="#fff"/><rect x="755.43314" y="698.49356" width="9.88235" height="46.58824" transform="matrix(0.01294, 0.99992, -0.99992, 0.01294, 1263.52115, -214.46611)" fill="#e6e6e6"/><path d="M800.28341,728.63165l-6.65257-.0194-4.11239-7.33712,4.445-7.31237,6.1811.01792a11.99893,11.99893,0,1,0,.13889,14.651Z" transform="translate(-208.74311 -166.60499)" fill="#e6e6e6"/><path d="M720.46522,728.63165l6.65258-.0194,4.11239-7.33712-4.445-7.31237-6.18109.01792a11.99892,11.99892,0,1,1-.1389,14.651Z" transform="translate(-208.74311 -166.60499)" fill="#e6e6e6"/><path d="M990.25689,705.605h-688a1,1,0,0,1,0-2h688a1,1,0,0,1,0,2Z" transform="translate(-208.74311 -166.60499)" fill="#3f3d56"/><circle cx="633" cy="316" r="33" fill="#2f2e41"/><polygon points="646.373 501.257 648.915 513.25 696.385 509.155 692.633 491.454 646.373 501.257" fill="#ffb8b8"/><path d="M835.445,677.51214h38.53073a0,0,0,0,1,0,0V692.399a0,0,0,0,1,0,0H850.33184A14.88686,14.88686,0,0,1,835.445,677.51216v0A0,0,0,0,1,835.445,677.51214Z" transform="translate(153.08039 1496.48988) rotate(-101.96466)" fill="#2f2e41"/><polygon points="616.634 500.617 611.291 511.651 566.187 496.295 574.072 480.01 616.634 500.617" fill="#ffb8b8"/><path d="M817.29434,676.471h23.64387a0,0,0,0,1,0,0V691.3579a0,0,0,0,1,0,0H802.40748a0,0,0,0,1,0,0v0A14.88686,14.88686,0,0,1,817.29434,676.471Z" transform="translate(-360.70199 958.81431) rotate(-64.16458)" fill="#2f2e41"/><path d="M736.51614,645.429A10.74272,10.74272,0,0,0,749.225,634.94887l74.37388-68.5711-18.47-14.30549-67.33743,71.94341a10.80091,10.80091,0,0,0-1.27527,21.41334Z" transform="translate(-208.74311 -166.60499)" fill="#ffb8b8"/><circle cx="628.85827" cy="325.92913" r="24.56103" fill="#ffb8b8"/><path d="M859.643,636.9087c-17.22851.00049-37.978-3.62842-50.77856-18.477l-.28833-.33447.29663-.32813c.09668-.10693,9.51367-10.86865.11084-30.061l-12.92774,3.97753-12.87036-16.98876,7.12964-21.38916,29.17749-23.50391a26.75074,26.75074,0,0,1,14.6106-5.78906,80.21058,80.21058,0,0,0,27.78467-7.91309,27.906,27.906,0,0,1,12.7998-2.79834l.57373.01611a9.95022,9.95022,0,0,1,9.64063,10.70752c-1.97852,25.62989-5.47242,87.54346,4.7915,108.86133l.26514.55078-.59229.15039A136.1132,136.1132,0,0,1,859.643,636.9087Z" transform="translate(-208.74311 -166.60499)" fill="#6c63ff"/><path d="M812.24311,618.105s-65-6-72,13,1,28,13,32,41,9,41,9l13-16,34,2s37.88482,21.9732,48.35975,45.47377a30.76193,30.76193,0,0,0,25.77746,18.23863c8.398.58447,15.86279-2.5874,15.86279-15.7124,0-30-42-73-42-73Z" transform="translate(-208.74311 -166.60499)" fill="#2f2e41"/><path d="M762.74311,647.605s17-5,44,8" transform="translate(-208.74311 -166.60499)" fill="#2f2e41"/><path d="M813.09975,476.87088a73.04115,73.04115,0,0,0,31.59919,10.4119l-3.33084-3.991a24.4775,24.4775,0,0,0,7.5611,1.50142,8.28066,8.28066,0,0,0,6.74954-3.15917,7.70229,7.70229,0,0,0,.51556-7.11505,14.58851,14.58851,0,0,0-4.58936-5.7385,27.32286,27.32286,0,0,0-25.43066-4.54493,16.32974,16.32974,0,0,0-7.59542,4.8722,9.23578,9.23578,0,0,0-1.86256,8.56086" transform="translate(-208.74311 -166.60499)" fill="#2f2e41"/><path d="M841.566,457.23948a75.48468,75.48468,0,0,1,19.13688-26.52138c5.292-4.70276,11.47246-8.74308,18.44626-9.9627s14.83309.86982,19.11055,6.51116c3.49772,4.613,4.15213,10.79276,3.76672,16.569s-1.67632,11.49651-1.5527,17.28428a35.46794,35.46794,0,0,0,50.52712,31.351c-6.02152,3.32885-10.714,8.59777-16.3048,12.60812s-12.96272,6.7601-19.31233,4.11012c-6.71812-2.80378-9.79963-10.41937-12.20608-17.28984q-5.36588-15.31979-10.73177-30.63955c-1.82434-5.20852-3.739-10.57156-7.462-14.6454s-9.76461-6.5568-14.88927-4.50871c-3.884,1.55225-6.41275,5.25755-8.63029,8.804s-4.557,7.31984-8.30359,9.17935-9.29837.7147-10.52292-3.28471" transform="translate(-208.74311 -166.60499)" fill="#2f2e41"/><rect x="849.17591" y="602.32959" width="9.88235" height="46.58824" transform="translate(-398.7829 634.11136) rotate(-45.74128)" fill="#e6e6e6"/><path d="M867.76694,638.92485a9.88235,9.88235,0,1,0,13.97459-.18081A9.88238,9.88238,0,0,0,867.76694,638.92485Zm10.111,9.8527a4.23529,4.23529,0,1,1-.07749-5.98911A4.2354,4.2354,0,0,1,877.87794,648.77755Z" transform="translate(-208.74311 -166.60499)" fill="#e6e6e6"/><path d="M830.73651,592.5643l4.69037,4.7178-2.28023,8.096-8.3137,2.02756-4.358-4.38337a11.99891,11.99891,0,1,0,10.26158-10.458Z" transform="translate(-208.74311 -166.60499)" fill="#e6e6e6"/><path d="M849.99287,636.99464a11.579,11.579,0,0,1-1.26831-.07032,11.02341,11.02341,0,0,1-9.68018-9.68115,11.00337,11.00337,0,0,1,10.93115-12.25,10.62327,10.62327,0,0,1,1.46607.10938l33.57861-35.74512-3.50513-11.68457,17.605-7.8916,4.93384,12.06006a20.48972,20.48972,0,0,1-6.17724,23.67236l-36.96119,29.40088a10.25885,10.25885,0,0,1,.06006,1.07861,11.01824,11.01824,0,0,1-3.66382,8.19678A10.87186,10.87186,0,0,1,849.99287,636.99464Z" transform="translate(-208.74311 -166.60499)" fill="#ffb8b8"/><path d="M876.24311,518.105h0a9.45333,9.45333,0,0,1,12.628,5.1563l17.372,43.84371-27,18Z" transform="translate(-208.74311 -166.60499)" fill="#6c63ff"/><path d="M775.19331,550.025a8.93406,8.93406,0,0,0-7.86036-1.51L717.22309,562.435l-.02978.01-1.97022.55c.3501.57.68994,1.15,1.01025,1.73a87.88813,87.88813,0,0,1,2.83985,80.54q-.43506.93009-.8999,1.83v.06l1.93994.54.02978.00994L767.333,660.815a9.2381,9.2381,0,0,0,2.43018.33,9.00412,9.00412,0,0,0,8.98-9v-94.96A8.95586,8.95586,0,0,0,775.19331,550.025Z" transform="translate(-208.74311 -166.60499)" fill="#e6e6e6"/><path d="M636.373,695.675a20.72756,20.72756,0,0,1-.9497,1.96,25.07771,25.07771,0,0,1-7.6001,8.55A24.96918,24.96918,0,0,1,588.48334,685.765v-4.03h3.41993A87.33739,87.33739,0,0,0,636.373,695.675Z" transform="translate(-208.74311 -166.60499)" fill="#3f3d56"/><path d="M685.17329,682.915v2.85a24.96092,24.96092,0,0,1-46.88038,11.95,20.84452,20.84452,0,0,1-.98974-2.01c.73.02,1.44971.03,2.18017.03A87.46792,87.46792,0,0,0,685.17329,682.915Z" transform="translate(-208.74311 -166.60499)" fill="#3f3d56"/><path d="M718.81293,381.535c-.75-.11-1.50976-.18-2.27-.23a83.978,83.978,0,0,1,1.67042,62.71c.75976-.09,1.50976-.21,2.25976-.35a31.50218,31.50218,0,0,0-1.66016-62.13Z" transform="translate(-208.74311 -166.60499)" fill="#3f3d56"/><path d="M562.42329,381.305c-.76026.05-1.52.12-2.27.23a31.50227,31.50227,0,0,0-1.66016,62.13c.75.14,1.5.26,2.25977.35a83.98416,83.98416,0,0,1,1.67041-62.71Z" transform="translate(-208.74311 -166.60499)" fill="#3f3d56"/><path d="M718.81293,381.535a85.99,85.99,0,1,0,6.67041,33.2A86.11413,86.11413,0,0,0,718.81293,381.535Zm-.5996,62.48a83.978,83.978,0,1,1,5.27-29.28A84.12246,84.12246,0,0,1,718.21333,444.015Z" transform="translate(-208.74311 -166.60499)" fill="#3f3d56"/><path d="M683.48334,395.235h-88a17.5,17.5,0,0,0,0,35h88a17.5,17.5,0,0,0,0-35Z" transform="translate(-208.74311 -166.60499)" fill="#3f3d56"/><path d="M718.21333,564.175q-.48048-.885-.99024-1.74c-.00976-.02-.02-.03-.02978-.05a89.96377,89.96377,0,1,0-81.77,135.25c.9497.05,1.90966.07995,2.86962.07995.4004.02.79.02,1.19043.02a89.33751,89.33751,0,0,0,45.68995-12.49,90.59747,90.59747,0,0,0,34.93994-37.55c.00976-.02.02-.03.02978-.05005.3003-.6.59033-1.21.88037-1.83a89.87079,89.87079,0,0,0-2.81-81.64Zm.85986,81.09q-.43506.93009-.8999,1.83a88.6136,88.6136,0,0,1-33,35.82,87.46792,87.46792,0,0,1-45.68995,12.82c-.73046,0-1.45019-.01-2.18017-.03q-.46509,0-.93018-.03a87.99685,87.99685,0,1,1,78.82032-132.73c.00976.01995.02.03.02978.05.3501.57.68994,1.15,1.01025,1.73a87.88813,87.88813,0,0,1,2.83985,80.54Z" transform="translate(-208.74311 -166.60499)" fill="#3f3d56"/><path d="M708.65327,566.835a10.4015,10.4015,0,0,0-6-1.93H663.32319a10.33,10.33,0,1,0,0,20.66h39.33008a10.21694,10.21694,0,0,0,2.08984-.21,11.34973,11.34973,0,0,0,2-.63,10.32589,10.32589,0,0,0,1.91016-17.89Z" transform="translate(-208.74311 -166.60499)" fill="#3f3d56"/><circle cx="457.19865" cy="408.62946" r="5.24444" fill="#f2f2f2"/><circle cx="474.24309" cy="408.62946" r="5.24444" fill="#f2f2f2"/><circle cx="491.28754" cy="408.62946" r="5.24444" fill="#6c63ff"/><path d="M775.19331,549.965a8.93409,8.93409,0,0,0-7.86036-1.51L717.19331,562.385l-2,.56c.35986.59.71,1.18,1.04,1.78l1.98-.55,49.65966-13.79a6.9927,6.9927,0,0,1,8.87012,6.74v94.96a6.9927,6.9927,0,0,1-8.87012,6.74l-46.84961-13.01-1.95019-.55005q-.43506.93009-.8999,1.83l1.96972.55,47.18994,13.11a9.2381,9.2381,0,0,0,2.43018.33,9.00412,9.00412,0,0,0,8.98-9v-94.96A8.95587,8.95587,0,0,0,775.19331,549.965Z" transform="translate(-208.74311 -166.60499)" fill="#3f3d56"/><path d="M473.74311,330.605v-147a17.0241,17.0241,0,0,0-17-17h-231a17.02411,17.02411,0,0,0-17,17v147a17.02411,17.02411,0,0,0,17,17h231A17.0241,17.0241,0,0,0,473.74311,330.605Zm-248,15a15.01828,15.01828,0,0,1-15-15v-147a15.01828,15.01828,0,0,1,15-15h231a15.01828,15.01828,0,0,1,15,15v147a15.01828,15.01828,0,0,1-15,15Z" transform="translate(-208.74311 -166.60499)" fill="#3f3d56"/><path d="M268.24311,229.855h-12a7,7,0,0,1,0-14h12a7,7,0,0,1,0,14Z" transform="translate(-208.74311 -166.60499)" fill="#ccc"/><path d="M350.24311,259.355h-12a7,7,0,0,1,0-14h12a7,7,0,0,1,0,14Z" transform="translate(-208.74311 -166.60499)" fill="#ccc"/><path d="M388.24311,259.355h-12a7,7,0,0,1,0-14h12a7,7,0,0,1,0,14Z" transform="translate(-208.74311 -166.60499)" fill="#ccc"/><path d="M426.24311,259.355h-12a7,7,0,0,1,0-14h12a7,7,0,0,1,0,14Z" transform="translate(-208.74311 -166.60499)" fill="#ccc"/><path d="M351.24311,230.355h-56a7,7,0,0,1,0-14h56a7,7,0,0,1,0,14Z" transform="translate(-208.74311 -166.60499)" fill="#ccc"/><path d="M312.24311,258.355h-56a7,7,0,0,1,0-14h56a7,7,0,0,1,0,14Z" transform="translate(-208.74311 -166.60499)" fill="#ccc"/><path d="M422.24311,230.355h-43a7,7,0,0,1,0-14h43a7,7,0,0,1,0,14Z" transform="translate(-208.74311 -166.60499)" fill="#ccc"/><path d="M268.24311,288.855h-12a7,7,0,0,1,0-14h12a7,7,0,0,1,0,14Z" transform="translate(-208.74311 -166.60499)" fill="#ccc"/><path d="M351.24311,289.355h-56a7,7,0,0,1,0-14h56a7,7,0,0,1,0,14Z" transform="translate(-208.74311 -166.60499)" fill="#ccc"/><path d="M422.24311,289.355h-43a7,7,0,0,1,0-14h43a7,7,0,0,1,0,14Z" transform="translate(-208.74311 -166.60499)" fill="#ccc"/><path d="M403.24311,312.855a7.00787,7.00787,0,0,1,7-7h12a7,7,0,0,1,0,14h-12A7.00787,7.00787,0,0,1,403.24311,312.855Z" transform="translate(-208.74311 -166.60499)" fill="#ccc"/><path d="M320.24311,313.355a7.00787,7.00787,0,0,1,7-7h56a7,7,0,0,1,0,14h-56A7.00787,7.00787,0,0,1,320.24311,313.355Z" transform="translate(-208.74311 -166.60499)" fill="#ccc"/><path d="M249.24311,313.355a7.00787,7.00787,0,0,1,7-7h43a7,7,0,0,1,0,14h-43A7.00787,7.00787,0,0,1,249.24311,313.355Z" transform="translate(-208.74311 -166.60499)" fill="#ccc"/><path d="M471.74311,193.05372h-261a1,1,0,0,1,0-2h261a1,1,0,0,1,0,2Z" transform="translate(-208.74311 -166.60499)" fill="#3f3d56"/><circle cx="19" cy="14" r="5" fill="#6c63ff"/><circle cx="36" cy="14" r="5" fill="#6c63ff"/><circle cx="53" cy="14" r="5" fill="#6c63ff"/><path d="M473.588,300.42951c12.106,4.59322,25.5015,9.584,38.62216,6.64092,9.6227-2.15846,19.20951-9.57013,21.43165-19.54254,2.24022-10.05357-4.288-19.83067-13.9583-22.77215-10.00352-3.04283-19.99229,3.21316-23.37494,12.75434a18.96352,18.96352,0,0,0,.77114,14.36109c2.08925,4.54914,5.779,8.11158,9.72875,11.073,8.36164,6.26934,18.582,9.79483,25.68064,17.73046,3.33141,3.72422,5.72192,8.40772,5.24909,13.5205-.40805,4.41239-2.9488,8.11377-6.07577,11.09739-6.95865,6.63965-16.18215,10.56953-22.03915,18.40932a32.89494,32.89494,0,0,0,16.52091,51.28655,32.45665,32.45665,0,0,0,7.47176,1.45975c1.9246.15476,1.91446-2.846,0-3a30.87346,30.87346,0,0,1-23.70735-15.07641,30.28389,30.28389,0,0,1-.45122-28.736c4.41062-8.57793,12.73986-13.02653,20.11124-18.67853,3.3155-2.54216,6.52637-5.37693,8.67681-9.0106a17.93813,17.93813,0,0,0,2.15838-12.82242c-2.04608-9.69787-11.359-16.42169-19.46416-20.98744-7.904-4.45244-17.64029-9.25446-21.408-18.08879-3.62222-8.49331,1.05782-19.08883,9.78128-22.22934,8.75481-3.1518,19.03252,2.849,21.33892,11.71135,2.48495,9.54841-4.80668,18.29475-12.84471,22.35976-10.8283,5.4761-23.599,2.59035-34.50506-1.10178-2.99692-1.01458-5.95873-2.129-8.9166-3.25129-1.80689-.68557-2.5881,2.21346-.79752,2.89283Z" transform="translate(-208.74311 -166.60499)" fill="#3f3d56"/></svg>